<?xml version="1.0" encoding="UTF-8"?>
<svg id="Layer_1" data-name="Layer 1" xmlns="http://www.w3.org/2000/svg" viewBox="0 0 210.64 41.62">
  <defs>
    <style>
      .cls-1 {
        fill: #c28dff;
      }

      .cls-1, .cls-2 {
        fill-rule: evenodd;
      }

      .cls-2 {
        fill: #ffdc5a;
      }
    </style>
  </defs>
  <g id="Logos">
    <g>
      <g>
        <path d="M64.56,13.27c1.52-2.59,3.58-4.62,6.19-6.07,2.61-1.46,5.46-2.18,8.57-2.18,3.55,0,6.71.87,9.48,2.62,2.77,1.74,4.78,4.22,6.02,7.42h-6.58c-.86-1.76-2.06-3.07-3.6-3.94-1.54-.86-3.31-1.3-5.33-1.3-2.21,0-4.18.5-5.9,1.49-1.73.99-3.08,2.42-4.06,4.27-.98,1.86-1.46,4.02-1.46,6.48s.49,4.62,1.46,6.48c.98,1.86,2.33,3.29,4.06,4.3,1.73,1.01,3.7,1.51,5.9,1.51,2.02,0,3.79-.43,5.33-1.3,1.54-.86,2.74-2.18,3.6-3.94h6.58c-1.25,3.2-3.26,5.66-6.02,7.39-2.77,1.73-5.93,2.59-9.48,2.59-3.14,0-6-.73-8.59-2.18-2.59-1.46-4.65-3.48-6.17-6.07-1.52-2.59-2.28-5.52-2.28-8.78s.76-6.19,2.28-8.78Z"/>
        <path d="M101.49,7.85c-.67-.67-1.01-1.5-1.01-2.5s.34-1.82,1.01-2.5c.67-.67,1.5-1.01,2.5-1.01s1.78.34,2.45,1.01,1.01,1.5,1.01,2.5-.34,1.82-1.01,2.5-1.49,1.01-2.45,1.01-1.82-.34-2.5-1.01ZM106.68,12.36v26.45h-5.47V12.36h5.47Z"/>
        <path d="M122.54,13.06c1.33-.75,2.9-1.13,4.73-1.13v5.66h-1.39c-2.14,0-3.77.54-4.87,1.63-1.1,1.09-1.66,2.98-1.66,5.66v13.92h-5.47V12.36h5.47v3.84c.8-1.34,1.86-2.39,3.19-3.14Z"/>
        <path d="M132.14,18.38c1.1-2.06,2.63-3.66,4.58-4.78,1.95-1.12,4.19-1.68,6.72-1.68,3.2,0,5.85.76,7.94,2.28s3.51,3.69,4.25,6.5h-5.9c-.48-1.31-1.25-2.34-2.3-3.07-1.06-.74-2.38-1.1-3.98-1.1-2.24,0-4.03.79-5.35,2.38-1.33,1.58-1.99,3.8-1.99,6.65s.66,5.07,1.99,6.67c1.33,1.6,3.11,2.4,5.35,2.4,3.17,0,5.26-1.39,6.29-4.18h5.9c-.77,2.69-2.21,4.82-4.32,6.41-2.11,1.58-4.74,2.38-7.87,2.38-2.53,0-4.77-.57-6.72-1.7-1.95-1.13-3.48-2.74-4.58-4.8-1.1-2.06-1.66-4.46-1.66-7.18s.55-5.11,1.66-7.18Z"/>
        <path d="M166.58,3.29v35.52h-5.47V3.29h5.47Z"/>
        <path d="M174.07,7.85c-.67-.67-1.01-1.5-1.01-2.5s.34-1.82,1.01-2.5c.67-.67,1.5-1.01,2.5-1.01s1.78.34,2.45,1.01,1.01,1.5,1.01,2.5-.34,1.82-1.01,2.5-1.49,1.01-2.45,1.01-1.82-.34-2.5-1.01ZM179.25,12.36v26.45h-5.47V12.36h5.47Z"/>
        <path d="M205.39,13.22c1.65.86,2.94,2.14,3.86,3.84.93,1.7,1.39,3.74,1.39,6.14v15.6h-5.42v-14.78c0-2.37-.59-4.18-1.78-5.45-1.18-1.26-2.8-1.9-4.85-1.9s-3.67.63-4.87,1.9c-1.2,1.26-1.8,3.08-1.8,5.45v14.78h-5.47V12.36h5.47v3.02c.89-1.09,2.04-1.94,3.43-2.54,1.39-.61,2.87-.91,4.44-.91,2.08,0,3.94.43,5.59,1.3Z"/>
      </g>
      <g>
        <g>
          <polygon class="cls-2" points="24.5 40.81 32.5 36.81 16.5 28.81 16.5 36.81 24.5 40.81"/>
          <path d="M24.5,41.37l-8.5-4.25v-9.12l17.62,8.81-9.12,4.56ZM17,36.5l7.5,3.75,6.88-3.44-14.38-7.19v6.88Z"/>
        </g>
        <g>
          <polygon class="cls-1" points="16.5 40.81 16.5 28.81 8.5 24.81 8.5 4.81 .5 8.81 .5 32.81 16.5 40.81"/>
          <path d="M17,41.62L0,33.12V8.5l9-4.5v20.5l8,4v13.12ZM1,32.5l15,7.5v-10.88l-8-4V5.62l-7,3.5v23.38Z"/>
        </g>
        <g>
          <polygon class="cls-1" points="8.5 4.81 24.5 12.81 24.5 4.81 16.5 .81 8.5 4.81"/>
          <path d="M25,13.62L7.38,4.81,16.5.25l8.5,4.25v9.12ZM9.62,4.81l14.38,7.19v-6.88l-7.5-3.75-6.88,3.44Z"/>
        </g>
        <g>
          <polygon class="cls-2" points="24.5 12.81 32.5 16.81 32.5 36.81 40.5 32.81 40.5 8.81 24.5 .81 24.5 12.81"/>
          <path d="M32,37.62v-20.5l-8-4V0l17,8.5v24.62l-9,4.5ZM25,12.5l8,4v19.5l7-3.5V9.12L25,1.62v10.88Z"/>
        </g>
      </g>
    </g>
  </g>
</svg>