<?xml version="1.0" encoding="UTF-8"?>
<svg id="Layer_1" data-name="Layer 1" xmlns="http://www.w3.org/2000/svg" viewBox="0 0 300 300">
  <defs>
    <style>
      .cls-1 {
        fill: #c28dff;
      }

      .cls-1, .cls-2 {
        fill-rule: evenodd;
      }

      .cls-3 {
        fill: #ece5ff;
      }

      .cls-2 {
        fill: #ffdc5a;
      }
    </style>
  </defs>
  <rect class="cls-3" x="0" width="300" height="300"/>
  <g>
    <g>
      <polygon class="cls-2" points="164.06 213.25 192.17 199.19 135.94 171.08 135.94 199.19 164.06 213.25"/>
      <path d="M164.06,215.21l-29.87-14.93v-32.04l61.91,30.95-32.04,16.02ZM137.7,198.11l26.35,13.18,24.18-12.09-50.54-25.27v24.19Z"/>
    </g>
    <g>
      <polygon class="cls-1" points="135.94 213.25 135.94 171.08 107.83 157.03 107.83 86.75 79.72 100.81 79.72 185.14 135.94 213.25"/>
      <path d="M137.7,216.09l-59.74-29.87v-86.5l31.63-15.81v72.04l28.11,14.06v46.09ZM81.48,184.05l52.71,26.35v-38.24l-28.11-14.06v-68.52l-24.6,12.3v82.17Z"/>
    </g>
    <g>
      <polygon class="cls-1" points="107.83 86.75 164.06 114.86 164.06 86.75 135.94 72.69 107.83 86.75"/>
      <path d="M165.81,117.7l-61.91-30.95,32.04-16.02,29.87,14.93v32.04ZM111.76,86.75l50.54,25.27v-24.19l-26.35-13.18-24.18,12.09Z"/>
    </g>
    <g>
      <polygon class="cls-2" points="164.06 114.86 192.17 128.92 192.17 199.19 220.28 185.14 220.28 100.81 164.06 72.69 164.06 114.86"/>
      <path d="M190.41,202.04v-72.04l-28.11-14.06v-46.09l59.74,29.87v86.5l-31.63,15.81ZM165.81,113.78l28.11,14.06v68.52l24.6-12.3v-82.17l-52.71-26.35v38.24Z"/>
    </g>
  </g>
</svg>